# Blender 4.5.3 LTS
# www.blender.org
mtllib Arco.mtl
g Arco_Vintage_Door_Open.001
v 2.517477 0.261787 11.755032
v 2.102113 0.268128 11.845545
v 2.096159 -0.312736 11.858912
v 2.511523 -0.319076 11.768399
v 3.912272 0.202825 9.814271
v 3.869158 0.017679 -0.034145
v 3.675488 0.019687 -0.033156
v 3.709753 0.166831 6.375649
v 3.671577 0.176029 6.758309
v 3.554689 0.185658 7.124638
v 3.364154 0.195299 7.458677
v 3.108307 0.204528 7.745747
v 2.798340 0.212943 7.973364
v 2.447796 0.220178 8.131585
v 2.071990 0.225914 8.213475
v -2.532143 0.306498 8.279881
v -2.908804 0.308563 8.201835
v -3.261021 0.308614 8.047202
v -3.573405 0.306651 7.822764
v -3.832307 0.302758 7.538325
v -4.026404 0.297105 7.206251
v -4.147218 0.289941 6.841136
v -4.189468 0.281576 6.458887
v -4.223733 0.134432 0.050082
v -4.417403 0.136440 0.051071
v -4.374289 0.321586 9.899487
v -4.327590 0.330831 10.321964
v -4.194059 0.338749 10.725513
v -3.979531 0.344997 11.092512
v -3.693377 0.349300 11.406924
v -3.348110 0.351470 11.655018
v -2.958817 0.351413 11.825891
v -2.542508 0.349131 11.912155
v 2.904921 0.253792 11.580190
v 3.247516 0.244490 11.328584
v 3.530293 0.234288 11.011265
v 3.740904 0.223633 10.642094
v 3.870080 0.212991 10.237204
v 3.863204 -0.563184 -0.020777
v 3.906319 -0.378038 9.827639
v 3.669534 -0.561177 -0.019787
v 3.703799 -0.414032 6.389018
v 3.864126 -0.367872 10.250571
v 3.734951 -0.357230 10.655461
v 3.524339 -0.346575 11.024632
v 3.241563 -0.336374 11.341951
v 2.898968 -0.327071 11.593557
v -2.548462 -0.231732 11.925524
v -2.964771 -0.229450 11.839259
v -3.354064 -0.229393 11.668386
v -3.699331 -0.231564 11.420293
v -3.985485 -0.235866 11.105881
v -4.200013 -0.242114 10.738881
v -4.333544 -0.250033 10.335333
v -4.380242 -0.259277 9.912855
v -4.423357 -0.444423 0.064440
v -4.229688 -0.446431 0.063450
v -4.195422 -0.299287 6.472255
v -4.153172 -0.290923 6.854504
v -4.032358 -0.283758 7.219619
v -3.838261 -0.278105 7.551693
v -3.579359 -0.274212 7.836133
v -3.266975 -0.272249 8.060571
v -2.914758 -0.272300 8.215203
v -2.538097 -0.274365 8.293249
v 2.066036 -0.354949 8.226844
v 2.441842 -0.360685 8.144954
v 2.792387 -0.367920 7.986732
v 3.102353 -0.376335 7.759115
v 3.358200 -0.385565 7.472045
v 3.548735 -0.395205 7.138006
v 3.665624 -0.404834 6.771677
vn 0.3141 0.0186 0.9492
vn 0.1143 0.0217 0.9932
vn 0.1147 0.0217 0.9932
vn 0.0139 0.9998 -0.0127
vn 0.9999 -0.0103 -0.0042
vn -0.0053 -0.0230 -0.9997
vn -0.0139 -0.9998 0.0127
vn -0.9999 0.0104 0.0051
vn -0.9792 0.0054 -0.2029
vn -0.9950 0.0079 -0.0995
vn -0.9157 0.0001 -0.4019
vn -0.8121 -0.0051 -0.5835
vn -0.6730 -0.0101 -0.7395
vn -0.5046 -0.0147 -0.8632
vn -0.3141 -0.0186 -0.9492
vn -0.1143 -0.0217 -0.9932
vn -0.1148 -0.0217 -0.9932
vn 0.0947 -0.0239 -0.9952
vn 0.0943 -0.0239 -0.9953
vn 0.3039 -0.0250 -0.9524
vn 0.4953 -0.0251 -0.8683
vn 0.6651 -0.0240 -0.7464
vn 0.8058 -0.0219 -0.5918
vn 0.9113 -0.0188 -0.4113
vn 0.9770 -0.0149 -0.2129
vn 0.9939 -0.0127 -0.1096
vn 0.9999 -0.0104 -0.0051
vn -0.9999 0.0103 0.0042
vn -0.9770 0.0149 0.2129
vn -0.9939 0.0127 0.1096
vn -0.9113 0.0188 0.4113
vn -0.8058 0.0219 0.5918
vn -0.6651 0.0240 0.7463
vn -0.4953 0.0251 0.8683
vn -0.3039 0.0250 0.9524
vn -0.0948 0.0239 0.9952
vn -0.0943 0.0239 0.9953
vn 0.9950 -0.0079 0.0995
vn 0.9792 -0.0054 0.2028
vn 0.9157 -0.0001 0.4019
vn 0.8121 0.0051 0.5835
vn 0.6731 0.0101 0.7395
vn 0.5046 0.0147 0.8632
vt -0.250390 -0.000000
vt -0.128440 0.000000
vt -0.128440 0.166667
vt -0.250390 0.166667
vt -1.166670 1.833330
vt -1.166670 -0.005468
vt -1.111110 -0.005468
vt -1.111110 1.833330
vt -1.099580 1.943060
vt -1.065480 2.048000
vt -1.010310 2.143550
vt -0.936486 2.225550
vt -0.847222 2.290400
vt -0.746426 2.335280
vt -0.638501 2.358220
vt -0.528166 2.358220
vt -0.420241 2.335280
vt -0.319444 2.290400
vt -0.230181 2.225550
vt -0.156352 2.143550
vt -0.101184 2.048000
vt -0.067089 1.943060
vt -0.055556 1.833330
vt -0.055556 -0.005468
vt 0.000000 -0.005468
vt -0.000000 1.833330
vt -0.012747 1.954620
vt -0.050432 2.070600
vt -0.111407 2.176210
vt -0.193007 2.266830
vt -0.291667 2.338510
vt -0.403073 2.388120
vt -0.522358 2.413470
vt -0.644308 2.413470
vt -0.763593 2.388120
vt -0.875000 2.338510
vt -0.973660 2.266830
vt -1.055260 2.176210
vt -1.116230 2.070600
vt -1.153920 1.954620
vt -0.005468 0.166667
vt -0.005468 0.000000
vt 1.833330 -0.000000
vt 1.833330 0.166667
vt 1.166670 0.166667
vt 1.111110 0.166667
vt 1.111110 0.000000
vt 1.166670 0.000000
vt 1.111110 1.833330
vt 1.111110 -0.005468
vt 1.166670 -0.005468
vt 1.166670 1.833330
vt 1.153920 1.954620
vt 1.116230 2.070600
vt 1.055260 2.176210
vt 0.973660 2.266830
vt 0.875000 2.338510
vt 0.763593 2.388120
vt 0.644308 2.413470
vt 0.522358 2.413470
vt 0.403073 2.388120
vt 0.291667 2.338510
vt 0.193007 2.266830
vt 0.111407 2.176210
vt 0.050432 2.070600
vt 0.012747 1.954620
vt 0.055556 -0.005468
vt 0.055556 1.833330
vt 0.067089 1.943060
vt 0.101184 2.048000
vt 0.156352 2.143550
vt 0.230181 2.225550
vt 0.319444 2.290400
vt 0.420241 2.335280
vt 0.528166 2.358220
vt 0.638501 2.358220
vt 0.746426 2.335280
vt 0.847222 2.290400
vt 0.936486 2.225550
vt 1.010310 2.143550
vt 1.065480 2.048000
vt 1.099580 1.943060
vt -1.833330 -0.000000
vt 0.005468 0.000000
vt 0.005468 0.166667
vt -1.833330 0.166667
vt -1.817480 0.000000
vt -1.707150 -0.000000
vt -1.707150 0.166667
vt -1.817480 0.166667
vt -1.618510 0.000000
vt -1.508180 0.000000
vt -1.508180 0.166667
vt -1.618510 0.166667
vt -1.351210 0.000000
vt -1.240880 0.000000
vt -1.240880 0.166667
vt -1.351210 0.166667
vt -1.027270 0.000000
vt -0.916938 0.000000
vt -0.916938 0.166667
vt -1.027270 0.166667
vt -0.660848 0.000000
vt -0.550512 0.000000
vt -0.550512 0.166667
vt -0.660848 0.166667
vt -0.267950 0.000000
vt -0.157615 0.000000
vt -0.157615 0.166667
vt -0.267950 0.166667
vt 0.134247 0.000000
vt 0.244582 0.000000
vt 0.244582 0.166667
vt 0.134247 0.166667
vt 0.528166 0.000000
vt 0.638501 0.000000
vt 0.638501 0.166667
vt 0.528166 0.166667
vt 0.896590 0.000000
vt 1.006930 0.000000
vt 1.006930 0.166667
vt 0.896590 0.166667
vt 1.223420 0.000000
vt 1.333750 0.000000
vt 1.333750 0.166667
vt 1.223420 0.166667
vt 1.494370 0.000000
vt 1.604700 0.000000
vt 1.604700 0.166667
vt 1.494370 0.166667
vt 1.697590 0.000000
vt 1.807930 0.000000
vt 1.807930 0.166667
vt 1.697590 0.166667
vt 1.824210 0.000000
vt 1.934550 0.000000
vt 1.934550 0.166667
vt 1.824210 0.166667
vt 1.868700 0.000000
vt 1.979030 0.000000
vt 1.979030 0.166667
vt 1.868700 0.166667
vt 1.829100 -0.000000
vt 1.939430 0.000000
vt 1.939430 0.166667
vt 1.829100 0.166667
vt 0.055556 0.166667
vt 0.000000 0.166667
vt 0.000000 0.000000
vt 0.055556 0.000000
vt -1.945240 -0.000000
vt -1.823290 -0.000000
vt -1.823290 0.166667
vt -1.945240 0.166667
vt -1.984840 0.000000
vt -1.862890 -0.000000
vt -1.862890 0.166667
vt -1.984840 0.166667
vt -1.940350 0.000000
vt -1.818400 0.000000
vt -1.818400 0.166667
vt -1.940350 0.166667
vt -1.813730 0.000000
vt -1.691780 0.000000
vt -1.691780 0.166667
vt -1.813730 0.166667
vt -1.610510 0.000000
vt -1.488560 0.000000
vt -1.488560 0.166667
vt -1.610510 0.166667
vt -1.339560 -0.000000
vt -1.217610 0.000000
vt -1.217610 0.166667
vt -1.339560 0.166667
vt -1.012730 0.000000
vt -0.890783 -0.000000
vt -0.890783 0.166667
vt -1.012730 0.166667
vt -0.644308 0.000000
vt -0.522358 0.000000
vt -0.522358 0.166667
vt -0.644308 0.166667
vt 1.701340 -0.000000
vt 1.823290 -0.000000
vt 1.823290 0.166667
vt 1.701340 0.166667
vt 1.502370 -0.000000
vt 1.624320 0.000000
vt 1.624320 0.166667
vt 1.502370 0.166667
vt 1.235070 0.000000
vt 1.357020 0.000000
vt 1.357020 0.166667
vt 1.235070 0.166667
vt 0.911131 0.000000
vt 1.033080 0.000000
vt 1.033080 0.166667
vt 0.911131 0.166667
vt 0.544705 0.000000
vt 0.666655 0.000000
vt 0.666655 0.166667
vt 0.544705 0.166667
vt 0.151807 0.000000
vt 0.273757 -0.000000
vt 0.273757 0.166667
vt 0.151807 0.166667
s 1
g off
g Arco_madera
usemtl madera
f 1/1/1 2/2/2 3/3/3 4/4/1
s 2
f 5/5/4 6/6/4 7/7/4 8/8/4 9/9/4 10/10/4 11/11/4 12/12/4 13/13/4 14/14/4 15/15/4 16/16/4 17/17/4 18/18/4 19/19/4 20/20/4 21/21/4 22/22/4 23/23/4 24/24/4 25/25/4 26/26/4 27/27/4 28/28/4 29/29/4 30/30/4 31/31/4 32/32/4 33/33/4 2/34/4 1/35/4 34/36/4 35/37/4 36/38/4 37/39/4 38/40/4
s 3
f 39/41/5 6/42/5 5/43/5 40/44/5
s 4
f 39/45/6 41/46/6 7/47/6 6/48/6
s 5
f 42/49/7 41/50/7 39/51/7 40/52/7 43/53/7 44/54/7 45/55/7 46/56/7 47/57/7 4/58/7 3/59/7 48/60/7 49/61/7 50/62/7 51/63/7 52/64/7 53/65/7 54/66/7 55/26/7 56/25/7 57/67/7 58/68/7 59/69/7 60/70/7 61/71/7 62/72/7 63/73/7 64/74/7 65/75/7 66/76/7 67/77/7 68/78/7 69/79/7 70/80/7 71/81/7 72/82/7
s 6
f 8/83/8 7/84/8 41/85/8 42/86/8
s 7
f 9/87/9 8/88/10 42/89/10 72/90/9
f 10/91/11 9/92/9 72/93/9 71/94/11
f 11/95/12 10/96/11 71/97/11 70/98/12
f 12/99/13 11/100/12 70/101/12 69/102/13
f 13/103/14 12/104/13 69/105/13 68/106/14
f 14/107/15 13/108/14 68/109/14 67/110/15
f 15/111/16 14/112/15 67/113/15 66/114/17
f 16/115/18 15/116/16 66/117/17 65/118/19
f 17/119/20 16/120/18 65/121/19 64/122/20
f 18/123/21 17/124/20 64/125/20 63/126/21
f 19/127/22 18/128/21 63/129/21 62/130/22
f 20/131/23 19/132/22 62/133/22 61/134/23
f 21/135/24 20/136/23 61/137/23 60/138/24
f 22/139/25 21/140/24 60/141/24 59/142/25
f 23/143/26 22/144/25 59/145/25 58/146/26
s 8
f 57/41/27 24/42/27 23/43/27 58/44/27
s 9
f 57/147/6 56/148/6 25/149/6 24/150/6
s 10
f 26/83/28 25/84/28 56/85/28 55/86/28
s 1
f 27/151/29 26/152/30 55/153/30 54/154/29
f 28/155/31 27/156/29 54/157/29 53/158/31
f 29/159/32 28/160/31 53/161/31 52/162/32
f 30/163/33 29/164/32 52/165/32 51/166/33
f 31/167/34 30/168/33 51/169/33 50/170/34
f 32/171/35 31/172/34 50/173/34 49/174/35
f 33/175/36 32/176/35 49/177/35 48/178/37
f 2/179/2 33/180/36 48/181/37 3/182/3
f 5/183/38 38/184/39 43/185/39 40/186/38
f 38/187/39 37/188/40 44/189/40 43/190/39
f 37/191/40 36/192/41 45/193/41 44/194/40
f 36/195/41 35/196/42 46/197/42 45/198/41
f 35/199/42 34/200/43 47/201/43 46/202/42
f 34/203/43 1/204/1 4/205/1 47/206/43
